#!OML:ASF H:\Martial Arts Walks\Project 1\Capture day 1\Session 1\male.ASF
:FULLY-SPECIFIED
:DEGREES
1999
root -1.08082 16.9709 -50.7347 5.76215 6.25432 1.06631
lowerback 8.78664 1.12255 -3.52271
upperback -1.56637 1.16481 0.922274
thorax -6.67759 0.727651 2.78467
lowerneck -4.17677 -4.79755 -7.42044
upperneck 4.79786 -6.26993 5.73229
head 2.77187 -3.10211 2.95952
rclavicle -7.52897e-015 -1.31198e-014
rhumerus -37.1437 9.37458 -81.4004
rradius 34.082
rwrist 0.63751
rhand -9.17794 -20.7308
rfingers 7.12502
rthumb 16.7751 -50.0261
lclavicle -7.52897e-015 -1.31198e-014
lhumerus -28.0125 -9.64273 92.1803
lradius 31.0959
lwrist -24.3869
lhand -17.0956 25.6361
lfingers 7.12502
lthumb 9.14313 -304.582
rfemur -23.0229 4.45617 13.9749
rtibia 43.2867
rfoot -20.5903 -17.9372
rtoes -11.0177
lfemur -17.8657 -3.81771 -9.22428
ltibia 34.954
lfoot -8.79155 6.5658
ltoes -24.8718
2000
root -1.03248 16.971 -50.7348 5.74243 6.18229 0.998928
lowerback 8.71196 1.13757 -3.53226
upperback -1.59158 1.18651 0.926263
thorax -6.6637 0.738948 2.79179
lowerneck -4.26097 -4.7954 -7.40479
upperneck 4.96821 -6.26391 5.67048
head 2.84144 -3.10004 2.93391
rclavicle -1.99779e-014 -1.98785e-015
rhumerus -37.1325 9.35648 -81.5108
rradius 34.1527
rwrist 0.561352
rhand -9.18859 -20.7743
rfingers 7.12502
rthumb 16.7649 -50.0705
lclavicle -1.99779e-014 -1.98785e-015
lhumerus -28.0235 -9.86623 92.24
lradius 30.811
lwrist -24.5516
lhand -16.9902 25.7246
lfingers 7.12502
lthumb 9.24484 -304.498
rfemur -22.9283 4.59466 13.8598
rtibia 43.1364
rfoot -20.5711 -17.707
rtoes -11.0502
lfemur -17.7499 -3.8405 -9.37872
ltibia 34.8841
lfoot -8.94871 6.88667
ltoes -24.6924
2001
root -0.984947 16.9712 -50.7351 5.72476 6.0959 0.928846
lowerback 8.64292 1.15953 -3.54185
upperback -1.62208 1.21719 0.92971
thorax -6.65934 0.754897 2.79699
lowerneck -4.33725 -4.77749 -7.40453
upperneck 5.14291 -6.23869 5.64584
head 2.91227 -3.08788 2.9252
rclavicle -5.31749e-015 -5.36719e-015
rhumerus -37.1324 9.36193 -81.6339
rradius 34.2415
rwrist 0.497665
rhand -9.1655 -20.8447
rfingers 7.12502
rthumb 16.7871 -50.139
lclavicle -5.31749e-015 -5.36719e-015
lhumerus -28.0378 -10.0886 92.3008
lradius 30.5287
lwrist -24.7104
lhand -16.8492 25.8338
lfingers 7.12502
lthumb 9.3808 -304.395
rfemur -22.8383 4.73156 13.7481
rtibia 42.9766
rfoot -20.4894 -17.4818
rtoes -10.9744
lfemur -17.6286 -3.85055 -9.52822
ltibia 34.8068
lfoot -9.10523 7.20554
ltoes -24.462
2002
root -0.938351 16.9716 -50.7355 5.70472 6.00109 0.857382
lowerback 8.57788 1.18573 -3.55365
upperback -1.64549 1.25333 0.934295
thorax -6.65024 0.773438 2.80387
lowerneck -4.42371 -4.75532 -7.4078
upperneck 5.31245 -6.20741 5.6333
head 2.98377 -3.07231 2.92156
rclavicle -8.24956e-015 -9.93923e-015
rhumerus -37.128 9.39938 -81.7673
rradius 34.358
rwrist 0.432819
rhand -9.12892 -20.8838
rfingers 7.12502
rthumb 16.8223 -50.1751
lclavicle -8.24956e-015 -9.93923e-015
lhumerus -28.0486 -10.322 92.3631
lradius 30.2718
lwrist -24.8459
lhand -16.6794 25.9788
lfingers 7.12502
lthumb 9.54466 -304.257
rfemur -22.7481 4.86409 13.6386
rtibia 42.8083
rfoot -20.3376 -17.2453
rtoes -10.7548
lfemur -17.4974 -3.85508 -9.67395
ltibia 34.7196
lfoot -9.26162 7.52197
ltoes -24.1774
2003
root -0.892644 16.9719 -50.736 5.68556 5.89725 0.788659
lowerback 8.52211 1.21328 -3.57124
upperback -1.66543 1.29037 0.939559
thorax -6.64304 0.792651 2.81456
lowerneck -4.52679 -4.72741 -7.4177
upperneck 5.48048 -6.1675 5.63193
head 3.05832 -3.05204 2.92332
rclavicle 3.05631e-015 -3.37934e-015
rhumerus -37.1132 9.47283 -81.9136
rradius 34.4898
rwrist 0.383787
rhand -9.08014 -20.8687
rfingers 7.12502
rthumb 16.8693 -50.156
lclavicle 3.05631e-015 -3.37934e-015
lhumerus -28.0637 -10.5409 92.4196
lradius 30.0483
lwrist -24.97
lhand -16.4921 26.1327
lfingers 7.12502
lthumb 9.72541 -304.112
rfemur -22.6639 4.9889 13.526
rtibia 42.634
rfoot -20.1045 -16.9827
rtoes -10.4094
lfemur -17.357 -3.85044 -9.82119
ltibia 34.6201
lfoot -9.41716 7.83736
ltoes -23.8681
2004
root -0.847888 16.9726 -50.7364 5.66804 5.78842 0.730439
lowerback 8.47746 1.24311 -3.5993
upperback -1.68511 1.32864 0.939943
thorax -6.64219 0.812869 2.82573
lowerneck -4.64753 -4.69288 -7.43174
upperneck 5.65656 -6.11885 5.65039
head 3.13972 -3.02672 2.93305
rclavicle 2.2239e-014 1.21259e-014
rhumerus -37.1042 9.57125 -82.0764
rradius 34.6464
rwrist 0.336369
rhand -9.03612 -20.8026
rfingers 7.12502
rthumb 16.9117 -50.0863
lclavicle 2.2239e-014 1.21259e-014
lhumerus -28.0747 -10.7243 92.4573
lradius 29.7991
lwrist -25.2011
lhand -16.4368 26.0766
lfingers 7.12502
lthumb 9.77878 -304.17
rfemur -22.5843 5.09842 13.403
rtibia 42.4535
rfoot -19.7974 -16.6906
rtoes -9.99712
lfemur -17.2092 -3.83317 -9.97823
ltibia 34.5064
lfoot -9.57186 8.14445
ltoes -23.5328
2005
root -0.804207 16.9737 -50.7369 5.65512 5.67381 0.672788
lowerback 8.42857 1.27752 -3.63316
upperback -1.70661 1.37253 0.940231
thorax -6.6415 0.83612 2.83934
lowerneck -4.72318 -4.67086 -7.42025
upperneck 5.79252 -6.08813 5.63326
head 3.19734 -3.01128 2.9255
rclavicle -3.26007e-014 1.31198e-014
rhumerus -37.1079 9.69003 -82.2486
rradius 34.8234
rwrist 0.290018
rhand -8.99416 -20.6956
rfingers 7.12502
rthumb 16.9521 -49.9758
lclavicle -3.26007e-014 1.31198e-014
lhumerus -28.0996 -10.885 92.4856
lradius 29.551
lwrist -25.5143
lhand -16.4911 25.8674
lfingers 7.12502
lthumb 9.72635 -304.377
rfemur -22.5152 5.20601 13.2812
rtibia 42.2696
rfoot -19.444 -16.3713
rtoes -9.53163
lfemur -17.059 -3.80644 -10.134
ltibia 34.3765
lfoot -9.72032 8.4521
ltoes -23.1952
2006
root -0.761558 16.9758 -50.7371 5.6495 5.55507 0.617025
lowerback 8.38153 1.31287 -3.66953
upperback -1.73037 1.41725 0.938596
thorax -6.64441 0.859939 2.85221
lowerneck -4.79932 -4.64976 -7.4026
upperneck 5.92076 -6.05859 5.61311
head 3.25218 -2.99635 2.91572
rclavicle -3.36195e-014 1.68967e-014
rhumerus -37.103 9.82658 -82.4333
rradius 35.0048
rwrist 0.247534
rhand -8.95559 -20.5923
rfingers 7.12502
rthumb 16.9892 -49.8693
lclavicle -3.36195e-014 1.68967e-014
lhumerus -28.1424 -11.042 92.5043
lradius 29.3181
lwrist -25.8776
lhand -16.6572 25.5084
lfingers 7.12502
lthumb 9.5661 -304.729
rfemur -22.4572 5.30324 13.1599
rtibia 42.0848
rfoot -19.0927 -16.0353
rtoes -9.09668
lfemur -16.9125 -3.77155 -10.2887
ltibia 34.23
lfoot -9.86517 8.74968
ltoes -22.807
